HIERARCHY
ROOT Hips
{
 OFFSET 0.000000 0.000000 0.000000
 CHANNELS 6 Xposition Yposition Zposition Yrotation Xrotation Zrotation
 JOINT Chest
 {
  OFFSET 0.000000 9.585900 0.002600
  CHANNELS 3 Yrotation Xrotation Zrotation
  JOINT Chest2
  {
   OFFSET 0.000000 9.601200 -0.005300
   CHANNELS 3 Yrotation Xrotation Zrotation
   JOINT Chest3
   {
    OFFSET 0.000000 9.561800 0.000000
    CHANNELS 3 Yrotation Xrotation Zrotation
    JOINT Chest4
    {
     OFFSET 0.000000 9.552100 0.000000
     CHANNELS 3 Yrotation Xrotation Zrotation
     JOINT Neck
     {
      OFFSET 0.000000 14.453000 0.000000
      CHANNELS 3 Yrotation Xrotation Zrotation
      JOINT Head
      {
       OFFSET 0.000000 8.936500 -0.011300
       CHANNELS 3 Yrotation Xrotation Zrotation
       End Site
       {
        OFFSET 0.000000 17.073600 -0.006000
       }
      }
     }
     JOINT RightCollar
     {
      OFFSET -2.921100 9.558500 0.000000
      CHANNELS 3 Yrotation Xrotation Zrotation
      JOINT RightShoulder
      {
       OFFSET -13.519700 0.000000 0.000000
       CHANNELS 3 Yrotation Xrotation Zrotation
       JOINT RightElbow
       {
        OFFSET 0.000000 -29.696600 0.000000
        CHANNELS 3 Yrotation Xrotation Zrotation
        JOINT RightWrist
        {
         OFFSET 0.000000 -24.004700 0.000000
         CHANNELS 3 Yrotation Xrotation Zrotation
         End Site
         {
          OFFSET 0.000000 -17.728500 0.000000
         }
        }
       }
      }
     }
     JOINT LeftCollar
     {
      OFFSET 2.921100 9.558500 0.000000
      CHANNELS 3 Yrotation Xrotation Zrotation
      JOINT LeftShoulder
      {
       OFFSET 13.519700 0.000000 0.000000
       CHANNELS 3 Yrotation Xrotation Zrotation
       JOINT LeftElbow
       {
        OFFSET 0.000000 -29.696600 0.000000
        CHANNELS 3 Yrotation Xrotation Zrotation
        JOINT LeftWrist
        {
         OFFSET 0.000000 -24.004700 0.000000
         CHANNELS 3 Yrotation Xrotation Zrotation
         End Site
         {
          OFFSET 0.000000 -17.728500 0.000000
         }
        }
       }
      }
     }
    }
   }
  }
 }
 JOINT RightHip
 {
  OFFSET -7.771700 -0.012900 -0.001300
  CHANNELS 3 Yrotation Xrotation Zrotation
  JOINT RightKnee
  {
   OFFSET 0.000000 -40.869800 0.001200
   CHANNELS 3 Yrotation Xrotation Zrotation
   JOINT RightAnkle
   {
    OFFSET 0.000000 -39.717900 0.002100
    CHANNELS 3 Yrotation Xrotation Zrotation
    JOINT RightToe
    {
     OFFSET 0.000000 -4.965400 11.033500
     CHANNELS 3 Yrotation Xrotation Zrotation
     End Site
     {
      OFFSET 0.000000 -1.423100 5.872300
     }
    }
   }
  }
 }
 JOINT LeftHip
 {
  OFFSET 7.771700 -0.012900 -0.001300
  CHANNELS 3 Yrotation Xrotation Zrotation
  JOINT LeftKnee
  {
   OFFSET 0.000000 -40.869800 0.001200
   CHANNELS 3 Yrotation Xrotation Zrotation
   JOINT LeftAnkle
   {
    OFFSET 0.000000 -39.717900 0.002100
    CHANNELS 3 Yrotation Xrotation Zrotation
    JOINT LeftToe
    {
     OFFSET 0.000000 -4.965400 11.033500
     CHANNELS 3 Yrotation Xrotation Zrotation
     End Site
     {
      OFFSET 0.000000 -1.423100 5.872300
     }
    }
   }
  }
 }
}
MOTION
Frames: 15
Frame Time: 0.008333
0.000000 85.388000 0.000000 0.000000 -5.767877 0.000000 0.000000 11.653817 0.000000 0.000000 -5.885947 0.000000 0.000000 -0.000000 0.000000 0.000000 -0.000000 0.000000 0.000000 12.528835 0.000000 0.000000 0.711642 0.000000 0.000000 -0.000000 0.000000 0.000000 0.000000 -90.000000 0.000000 -2.309062 0.000000 0.000000 2.309062 0.000000 0.000000 -0.000000 0.000000 0.000000 -0.000000 90.000000 0.000000 -2.309062 0.000000 0.000000 2.309062 0.000000 0.000000 8.520406 0.000000 0.000000 1.905762 0.000000 -0.000000 -4.658285 0.000000 0.000000 -0.000000 0.000000 0.000000 8.520406 0.000000 0.000000 1.905762 0.000000 -0.000000 -4.658285 0.000000 0.000000 -0.000000 0.000000
-7.203279 55.786789 26.165784 -178.750341 -30.700852 -11.013873 0.041119 12.721145 5.867926 -0.099837 7.309435 2.220661 -0.067064 9.112213 2.773259 -0.099407 7.294688 2.222244 3.810298 19.823787 -2.594299 4.692457 -4.577517 -3.663907 0.587517 0.760966 -2.733508 -13.225517 -5.860754 4.864902 32.817365 -82.974838 -15.550385 12.792197 -11.507241 -21.272518 -10.413112 1.902152 -3.455966 7.364088 -1.602041 -0.682218 -87.147376 -77.016071 98.173108 15.003664 -16.761075 -2.260563 -20.603197 -33.475395 9.611230 33.415023 85.686094 30.289606 1.684026 -18.596695 -2.039427 -0.584109 1.797605 -0.259240 -15.018312 -46.501836 16.254720 175.218967 80.914159 170.009363 -2.327248 -17.190045 2.255952 -0.060917 -0.525541 -0.033737
-7.203742 55.784169 26.182427 -178.824814 -30.626044 -11.021318 0.087765 12.684953 5.919666 -0.091424 7.283023 2.217041 -0.066025 9.093598 2.771737 -0.096670 7.291280 2.219270 3.789455 19.738018 -2.549934 4.656096 -4.680474 -3.611505 0.600609 0.792455 -2.755625 -13.191778 -5.754287 4.812181 34.194583 -83.221968 -16.929109 12.765498 -11.922093 -22.054131 -10.337254 1.905884 -3.450397 7.422449 -1.613562 -0.710984 -87.244568 -77.209531 98.189975 14.935612 -16.379691 -2.463506 -20.583650 -33.549302 9.706685 33.264580 85.664049 30.124602 1.712763 -18.580397 -2.003824 -0.637749 1.814608 -0.281686 -15.039628 -46.582270 16.342282 175.219875 80.913895 170.022089 -2.318985 -17.189239 2.248887 -0.066658 -0.522738 -0.032224
-7.211606 55.785710 26.191624 -178.851079 -30.594282 -11.018626 0.105438 12.681149 5.934448 -0.087146 7.276186 2.217585 -0.064678 9.095396 2.775864 -0.101843 7.265464 2.212406 3.762311 19.663734 -2.507476 4.600677 -4.779404 -3.557524 0.618458 0.823717 -2.777189 -13.185772 -5.652696 4.783828 36.237194 -83.461929 -18.966457 12.775112 -12.294032 -22.806130 -10.248026 1.903185 -3.447494 7.492174 -1.624384 -0.735053 -87.414370 -77.410287 98.274490 14.880743 -16.034224 -2.617004 -20.573336 -33.583382 9.736320 33.186761 85.645666 30.034033 1.709821 -18.551241 -1.989163 -0.652061 1.809023 -0.280626 -15.039999 -46.618315 16.335644 175.097492 80.917943 169.922444 -2.301905 -17.183553 2.230977 -0.067671 -0.522882 -0.033847
-7.221938 55.788918 26.198810 -178.864553 -30.572560 -11.015346 0.115854 12.693430 5.942473 -0.079951 7.270763 2.219347 -0.055637 9.088512 2.778173 -0.079927 7.270748 2.219377 3.688807 19.574154 -2.476617 4.527901 -4.873263 -3.504657 0.601814 0.828088 -2.803853 -13.207203 -5.557417 4.772286 38.941828 -83.688865 -21.660429 12.809116 -12.643569 -23.498617 -10.111933 1.857732 -3.441803 7.498236 -1.620734 -0.754398 -87.672092 -77.606816 98.448638 14.832098 -15.757338 -2.715927 -20.569416 -33.605281 9.747981 33.126556 85.627364 29.963880 1.704446 -18.525937 -1.981403 -0.646759 1.807522 -0.280159 -15.042363 -46.640507 16.324092 175.055038 80.926397 169.888864 -2.285399 -17.177534 2.224670 -0.063320 -0.522543 -0.036667
-7.233175 55.788828 26.212321 -178.901482 -30.505417 -10.999680 0.136564 12.640156 5.947651 -0.068760 7.285025 2.222324 -0.043362 9.082619 2.781069 -0.070194 7.266119 2.221582 3.638715 19.523178 -2.460360 4.416800 -4.982370 -3.431531 0.587950 0.841355 -2.823236 -13.244996 -5.448029 4.769850 42.432527 -83.908543 -25.140850 12.859555 -12.981236 -24.108484 -10.007940 1.826601 -3.434932 7.554425 -1.627186 -0.772238 -88.028894 -77.772810 98.732919 14.795778 -15.557994 -2.771301 -20.567754 -33.679001 9.781468 33.052793 85.609292 29.880647 1.699696 -18.502284 -1.977091 -0.644144 1.812907 -0.275476 -15.048518 -46.713113 16.341363 175.013349 80.935599 169.846279 -2.281623 -17.168813 2.229147 -0.058561 -0.518779 -0.038750
-7.243693 55.791183 26.222312 -178.937311 -30.456073 -10.993134 0.162315 12.604209 5.961280 -0.053023 7.299738 2.223586 -0.028780 9.076804 2.783857 -0.058596 7.261475 2.223598 3.581100 19.472910 -2.440347 4.288314 -5.077827 -3.362926 0.559129 0.844746 -2.832753 -13.294293 -5.316644 4.770654 46.730368 -84.100306 -29.427423 12.922702 -13.299087 -24.624631 -9.928146 1.802163 -3.424155 7.630251 -1.637484 -0.791425 -88.477640 -77.875525 99.134956 14.783212 -15.433464 -2.797621 -20.572430 -33.727538 9.822180 32.937260 85.588731 29.744666 1.699820 -18.476541 -1.966532 -0.649910 1.813620 -0.273037 -15.053957 -46.761882 16.354872 174.931187 80.944176 169.774017 -2.285725 -17.172020 2.228079 -0.049863 -0.510788 -0.041818
-7.254269 55.793420 26.231950 -178.970660 -30.398429 -10.989126 0.203108 12.616712 5.977873 -0.046270 7.256126 2.225404 -0.013370 9.070034 2.786385 -0.046296 7.256094 2.225377 3.494485 19.410546 -2.407662 4.169803 -5.148930 -3.319391 0.520170 0.830291 -2.829728 -13.352264 -5.157713 4.766174 51.715908 -84.245748 -34.403558 12.991270 -13.588386 -25.041279 -9.847481 1.789115 -3.408030 7.696829 -1.646472 -0.813017 -88.993330 -77.897689 99.640356 14.798519 -15.375517 -2.809321 -20.586441 -33.779529 9.865985 32.814938 85.566840 29.600955 1.703472 -18.461825 -1.952486 -0.657076 1.824331 -0.276606 -15.053875 -46.825600 16.333747 174.826235 80.949476 169.714703 -2.244364 -17.169844 2.190858 -0.048079 -0.508911 -0.042445
-7.266104 55.796562 26.238090 -178.991436 -30.349809 -10.983408 0.224646 12.604566 5.984400 -0.034049 7.249457 2.226747 0.001899 9.061629 2.788310 -0.044839 7.243983 2.228211 3.408535 19.359658 -2.384950 4.044405 -5.222289 -3.281760 0.480362 0.902429 -2.863299 -13.425296 -5.062249 4.821204 57.128583 -84.333135 -39.806243 13.059458 -13.848887 -25.362286 -9.755407 1.793926 -3.391176 7.759656 -1.652040 -0.838799 -89.577637 -77.840158 100.245066 14.838801 -15.370313 -2.819439 -20.600306 -33.824388 9.893609 32.682765 85.552947 29.452297 1.705252 -18.446516 -1.954904 -0.658093 1.828575 -0.269113 -15.062395 -46.873833 16.334751 174.795125 80.956056 169.692733 -2.237871 -17.167944 2.186982 -0.044016 -0.508625 -0.041960
-7.278073 55.798968 26.242919 -179.012087 -30.295498 -10.973714 0.246287 12.590007 5.988563 -0.022486 7.242018 2.226800 0.016357 9.052242 2.788670 -0.033248 7.236524 2.228312 3.305429 19.300040 -2.364481 3.917441 -5.299634 -3.255122 0.421191 0.956201 -2.886881 -13.506637 -4.955372 4.871076 62.692517 -84.362309 -45.346746 13.128573 -14.086511 -25.619568 -9.675203 1.803947 -3.364922 7.830470 -1.654217 -0.867560 -90.250444 -77.720512 100.954543 14.895402 -15.407379 -2.838008 -20.609254 -33.875561 9.919186 32.631744 85.537293 29.382758 1.700984 -18.440240 -1.948697 -0.662727 1.838342 -0.267194 -15.065980 -46.930040 16.319437 174.633105 80.958008 169.550553 -2.232352 -17.168656 2.175890 -0.057845 -0.510935 -0.040441
-7.275182 55.792242 26.265407 -178.863909 -30.080271 -11.131393 0.114362 12.447263 6.077715 -0.011810 7.234458 2.225392 0.029651 9.042704 2.787172 -0.021492 7.228085 2.229121 3.196918 19.236936 -2.352672 3.791858 -5.380686 -3.237589 0.373333 0.966761 -2.888294 -13.614480 -4.811104 4.887487 68.234389 -84.339178 -50.842125 13.199621 -14.303961 -25.855062 -9.599700 1.826143 -3.334325 7.916077 -1.656406 -0.895051 -90.999025 -77.558152 101.745673 14.961297 -15.487896 -2.859262 -20.871376 -34.005786 10.100042 32.233961 85.508104 28.981750 1.685933 -18.402527 -1.966536 -0.643044 1.827656 -0.249411 -15.430404 -47.262629 16.525118 174.520515 80.855246 169.469349 -2.136237 -16.688457 2.163478 -0.127278 -0.920584 -0.070982
-7.283894 55.794087 26.264847 -178.867815 -30.029853 -11.136246 0.127396 12.442857 6.088945 -0.001705 7.227612 2.223397 0.042204 9.034118 2.784837 -0.040568 7.199592 2.237947 3.050485 19.162030 -2.384506 3.728112 -5.432180 -3.221399 0.338382 1.062768 -2.925821 -13.731235 -4.729139 4.937504 73.612962 -84.270826 -56.149137 13.270267 -14.495855 -26.095945 -9.500322 1.874888 -3.316717 8.019556 -1.658580 -0.917113 -91.780350 -77.363746 102.572207 15.036424 -15.613002 -2.873120 -20.880182 -34.042710 10.117589 32.153961 85.494171 28.900536 1.687700 -18.418053 -1.956793 -0.643234 1.845184 -0.266188 -15.454882 -47.312584 16.525826 174.408601 80.848858 169.374524 -2.129762 -16.689957 2.147899 -0.126449 -0.924843 -0.065723
-7.287536 55.793079 26.266401 -178.899727 -29.954819 -11.147531 0.164255 12.411636 6.120597 0.002847 7.210368 2.222091 0.059563 9.039345 2.781336 -0.030792 7.185361 2.235446 2.919949 19.096134 -2.400686 3.629856 -5.499855 -3.205680 0.268200 1.150823 -2.945509 -13.853593 -4.662824 4.978011 78.691951 -84.169651 -61.137862 13.341424 -14.653904 -26.352638 -9.436829 1.911744 -3.282484 8.142601 -1.656611 -0.930802 -92.572722 -77.148554 103.410125 15.122065 -15.767863 -2.875940 -20.893890 -34.102183 10.179224 32.164276 85.481469 28.899928 1.714673 -18.443564 -1.945405 -0.680365 1.873522 -0.280784 -15.484687 -47.393446 16.558970 174.260823 80.832360 169.260186 -2.118120 -16.688851 2.129710 -0.126586 -0.933873 -0.070838
-7.293492 55.791320 26.263457 -178.913918 -29.889817 -11.142566 0.181813 12.396029 6.125953 -0.003052 7.169397 2.222069 0.086383 9.071225 2.775869 -0.000103 7.196293 2.226240 2.795495 19.023209 -2.404554 3.515896 -5.567343 -3.194005 0.182784 1.196462 -2.946517 -13.978040 -4.587343 4.995342 83.354551 -84.051304 -65.706551 13.407608 -14.779314 -26.607062 -9.402848 1.924825 -3.233520 8.279815 -1.650798 -0.937268 -93.365685 -76.927268 104.242153 15.214740 -15.932515 -2.859561 -20.908192 -34.163129 10.205660 32.200958 85.479203 28.933903 1.710510 -18.450461 -1.943948 -0.678174 1.878494 -0.280014 -15.495019 -47.467782 16.548255 174.104772 80.816340 169.134401 -2.103255 -16.684236 2.116381 -0.128959 -0.946025 -0.080091
-7.297602 55.790412 26.254766 -178.914884 -29.846919 -11.143778 0.192019 12.406274 6.129721 0.007970 7.162743 2.221311 0.097205 9.069955 2.773845 0.019300 7.202694 2.221369 2.684697 18.969724 -2.414562 3.407688 -5.619311 -3.184416 0.113116 1.250361 -2.950488 -14.093127 -4.519019 5.000866 87.526006 -83.934872 -69.794458 13.458810 -14.874723 -26.838499 -9.367151 1.944300 -3.187116 8.424514 -1.642898 -0.938680 -94.137931 -76.716101 105.044578 15.307318 -16.094864 -2.828139 -20.901888 -34.199510 10.215979 32.282426 85.480003 29.020970 1.704307 -18.466767 -1.945813 -0.685938 1.884501 -0.271376 -15.499063 -47.523015 16.511117 173.855839 80.789729 168.932562 -2.079330 -16.669872 2.090834 -0.142083 -0.974515 -0.087893
